<?xml version="1.0" encoding="utf-8"?>
<!-- Svg Vector Icons : http://www.onlinewebfonts.com/icon -->
<!DOCTYPE svg PUBLIC "-//W3C//DTD SVG 1.1//EN" "http://www.w3.org/Graphics/SVG/1.1/DTD/svg11.dtd">
<svg version="1.1" fill="#12d318" xmlns="http://www.w3.org/2000/svg" xmlns:xlink="http://www.w3.org/1999/xlink" x="0px" y="0px" viewBox="0 0 1000 1000" enable-background="new 0 0 1000 1000" xml:space="preserve">
<metadata> Svg Vector Icons : http://www.onlinewebfonts.com/icon </metadata>
<g><path d="M500,10c187.1,0,338.8,151.7,338.8,338.8c0,117.8-60.2,221.6-151.5,282.3C583,796.2,511.3,932.4,498.6,990c-12.8-58-85.4-195.7-190.8-362.3c-88.6-61.1-146.5-163.3-146.5-278.9C161.2,161.7,312.9,10,500,10L500,10z M500,159.4L500,159.4c-104.6,0-189.4,84.8-189.4,189.4c0,104.6,84.8,189.4,189.4,189.4c104.6,0,189.4-84.8,189.4-189.4C689.4,244.2,604.6,159.4,500,159.4z"/></g>
</svg>